<?xml version='1.0' encoding='iso-8859-1'?>
<!DOCTYPE svg PUBLIC '-//W3C//DTD SVG 1.1//EN' 'http://www.w3.org/Graphics/SVG/1.1/DTD/svg11.dtd'>
<!-- Uploaded to: SVG Repo, www.svgrepo.com, Generator: SVG Repo Mixer Tools -->
<svg fill="#000000" height="800px" width="800px" version="1.1" xmlns="http://www.w3.org/2000/svg" viewBox="0 0 456.229 456.229" xmlns:xlink="http://www.w3.org/1999/xlink" enable-background="new 0 0 456.229 456.229">
  <path d="m352.017,249.459c-17.515-24.01-41.056-42.167-68.402-52.836v-13.378c0-12.43-6.691-23.324-16.657-29.279v-84.247h89.086c4.156,0 7.879-2.571 9.352-6.458 1.473-3.886 0.387-8.279-2.726-11.032l-38.021-33.633c-1.828-1.617-4.186-2.51-6.626-2.51h-34.407v-6.086c0-2.848-1.214-5.56-3.338-7.457-2.123-1.897-4.959-2.801-7.784-2.479l-181.27,20.472c-5.057,0.571-8.878,4.848-8.878,9.937v29.246c0,5.523 4.478,10 10,10h64.681l1.339,3.424c11.085,28.334 4.347,60.544-17.168,82.059-3.905,3.905-3.905,10.237 0,14.142 1.953,1.953 4.512,2.929 7.071,2.929s5.118-0.976 7.071-2.929c26.16-26.16 34.989-64.858 23.06-99.625h10.87v84.246c-9.966,5.956-16.657,16.849-16.657,29.279v13.286c-58.797,22.789-97.807,79.344-97.807,142.949 0,38.604 14.403,75.49 40.556,103.864 7.547,8.188 18.306,12.885 29.518,12.885h166.469c11.242,0 22.078-4.78 29.729-13.115 25.877-28.19 40.204-64.794 40.342-103.068 0.119-32.729-10.048-64.053-29.403-90.586zm-37.782-213.373l15.411,13.633h-46.03v-13.633h30.619zm-50.619,13.633h-137.256v-13.024l137.256-15.502v28.526zm-161.27-10.312l9.014-1.018v11.33h-9.014v-10.312zm144.612,30.312v79.437h-37.687v-79.437h37.687zm79.386,359.87c-3.873,4.22-9.339,6.64-14.995,6.64h-166.469c-5.641,0-11.039-2.347-14.812-6.439-22.738-24.67-35.262-56.743-35.262-90.31 0-57.423 36.562-108.238 90.979-126.446 4.078-1.365 6.827-5.183 6.827-9.483v-20.305c0-7.768 6.319-14.088 14.088-14.088h13.913v114.61h-89.521c-2.848,0-5.449,1.613-6.717,4.162-7.898,15.895-12.073,33.719-12.073,51.548 0,28.311 10.326,55.559 29.075,76.723 1.424,1.607 3.468,2.527 5.614,2.527h162.25c2.147,0 4.192-0.921 5.615-2.529 18.636-21.05 28.958-48.141 29.065-76.283 0,0 0-0.001 0-0.002 0.063-18.299-4.049-35.802-12.223-52.021-1.274-2.529-3.865-4.125-6.697-4.125h-89.389v-114.61h13.912c7.769,0 14.088,6.32 14.088,14.088v20.381c0,4.291 2.737,8.104 6.804,9.475 25.935,8.749 49.175,25.847 65.441,48.145 16.825,23.065 25.664,50.289 25.561,78.727-0.118,33.279-12.574,65.105-35.074,89.615zm-98.229-54.326c4.143,0 7.5-3.358 7.5-7.5v-68.996h84.654c5.795,12.918 8.704,26.719 8.654,41.092-0.089,23.384-8.279,45.932-23.131,63.869h-155.35c-14.945-18.035-23.139-40.72-23.139-64.25 0-14.201 2.875-27.873 8.553-40.71h84.759v68.996c0,4.141 3.357,7.499 7.5,7.499z"/>
</svg>